<svg xmlns="http://www.w3.org/2000/svg" xmlns:xlink="http://www.w3.org/1999/xlink" width="1366" zoomAndPan="magnify" viewBox="0 0 1024.5 576" height="768" preserveAspectRatio="xMidYMid meet" version="1.0"><defs><clipPath id="2fcc453ddf"><path d="M 0 0.140625 L 1024 0.140625 L 1024 575.859375 L 0 575.859375 Z M 0 0.140625 " clip-rule="nonzero"/></clipPath><clipPath id="dcb0c111cd"><path d="M 452 259 L 512 259 L 512 335.851562 L 452 335.851562 Z M 452 259 " clip-rule="nonzero"/></clipPath><clipPath id="814df2227a"><path d="M 460 250.394531 L 490 250.394531 L 490 273 L 460 273 Z M 460 250.394531 " clip-rule="nonzero"/></clipPath></defs><g clip-path="url(#2fcc453ddf)"><path fill="#ffffff" d="M 0 0.140625 L 1024 0.140625 L 1024 575.859375 L 0 575.859375 Z M 0 0.140625 " fill-opacity="1" fill-rule="nonzero"/><path fill="#ffffff" d="M 0 0.140625 L 1024 0.140625 L 1024 575.859375 L 0 575.859375 Z M 0 0.140625 " fill-opacity="1" fill-rule="nonzero"/></g><g clip-path="url(#dcb0c111cd)"><path fill="#cdad7d" d="M 463.855469 318.222656 C 465.363281 320.738281 466.539062 322.75 467.207031 323.757812 C 471.570312 331.304688 479.285156 335.832031 487.839844 335.832031 C 501.089844 335.832031 511.992188 324.59375 511.992188 310.839844 L 511.992188 290.042969 C 511.992188 286.6875 509.308594 283.839844 506.121094 283.839844 L 505.785156 283.839844 C 504.277344 283.839844 503.101562 284.339844 502.09375 285.347656 C 501.257812 282.664062 498.910156 280.820312 496.058594 280.820312 L 495.722656 280.820312 C 494.210938 280.820312 492.703125 281.488281 491.527344 282.496094 C 490.691406 279.8125 488.34375 277.96875 485.492188 277.96875 L 485.15625 277.96875 C 483.644531 277.96875 482.472656 278.472656 481.296875 279.308594 L 481.296875 265.890625 C 481.296875 262.703125 478.445312 259.851562 474.925781 259.851562 L 474.589844 259.851562 C 471.066406 259.851562 468.214844 262.703125 468.214844 266.226562 L 468.214844 300.441406 C 463.855469 295.578125 458.65625 291.386719 455.300781 293.902344 C 451.609375 296.753906 452.617188 300.273438 453.621094 301.617188 C 456.304688 305.640625 460.667969 312.855469 463.855469 318.222656 Z M 457.144531 295.746094 C 458.824219 294.574219 463.519531 298.09375 468.886719 304.46875 C 469.222656 304.804688 469.722656 304.972656 470.226562 304.804688 C 470.730469 304.636719 471.066406 304.132812 471.066406 303.628906 L 471.066406 266.058594 C 471.066406 263.878906 472.742188 262.203125 474.925781 262.203125 L 475.257812 262.203125 C 477.273438 262.203125 479.117188 263.878906 479.117188 265.722656 L 479.117188 293.734375 C 479.117188 294.40625 479.621094 295.074219 480.292969 295.074219 C 480.960938 295.074219 481.464844 294.574219 481.632812 293.902344 L 481.632812 284.339844 C 481.632812 282.328125 483.308594 280.652344 485.492188 280.652344 L 485.824219 280.652344 C 488.007812 280.652344 489.683594 282.328125 489.683594 284.507812 L 489.683594 294.070312 C 489.683594 294.738281 490.1875 295.410156 491.027344 295.410156 C 491.863281 295.410156 492.367188 294.90625 492.367188 294.070312 L 492.367188 287.695312 C 492.367188 285.515625 494.210938 283.503906 496.226562 283.503906 L 496.558594 283.503906 C 498.574219 283.503906 500.417969 285.515625 500.417969 287.695312 L 500.417969 294.070312 C 500.417969 294.738281 500.921875 295.410156 501.757812 295.410156 C 502.597656 295.410156 503.101562 294.90625 503.101562 294.070312 L 503.101562 290.378906 C 503.101562 288.367188 504.777344 286.6875 506.457031 286.6875 L 505.953125 286.6875 C 507.796875 286.6875 509.308594 288.535156 509.308594 290.378906 L 509.308594 311.34375 C 509.308594 323.757812 499.578125 333.820312 487.671875 333.820312 C 480.125 333.820312 473.246094 329.792969 469.222656 323.085938 C 468.550781 321.910156 467.375 319.898438 465.867188 317.550781 C 462.679688 312.183594 458.320312 304.972656 455.972656 300.777344 C 455.972656 299.941406 454.460938 297.589844 457.144531 295.746094 Z M 457.144531 295.746094 " fill-opacity="1" fill-rule="nonzero"/></g><g clip-path="url(#814df2227a)"><path fill="#cdad7d" d="M 464.023438 271.929688 C 464.691406 271.59375 464.859375 270.921875 464.523438 270.253906 C 463.6875 268.574219 463.183594 266.730469 463.183594 264.886719 C 463.183594 258.34375 468.550781 253.144531 474.925781 253.144531 C 481.464844 253.144531 486.664062 258.511719 486.664062 264.886719 C 486.664062 266.898438 486.160156 269.078125 484.988281 270.753906 C 484.652344 271.425781 484.820312 272.097656 485.492188 272.433594 C 485.660156 272.601562 485.824219 272.601562 486.160156 272.601562 C 486.664062 272.601562 487 272.433594 487.167969 271.929688 C 488.507812 269.75 489.179688 267.234375 489.179688 264.71875 C 489.179688 256.835938 482.808594 250.460938 474.925781 250.460938 C 467.039062 250.460938 460.667969 256.835938 460.667969 264.71875 C 460.667969 267.066406 461.171875 269.246094 462.175781 271.257812 C 462.511719 272.097656 463.351562 272.265625 464.023438 271.929688 Z M 464.023438 271.929688 " fill-opacity="1" fill-rule="nonzero"/></g></svg>